<svg xmlns="http://www.w3.org/2000/svg" version="1.1" xmlns:xlink="http://www.w3.org/1999/xlink" xmlns:svgjs="http://svgjs.dev/svgjs" width="1440" height="560" preserveAspectRatio="none" viewBox="0 0 1440 560"><g mask="url(&quot;#SvgjsMask1029&quot;)" fill="none"><rect width="1440" height="560" x="0" y="0" fill="rgba(185, 160, 223, 1)"></rect><path d="M0,556.99C105.7,560.296,211.366,523.744,294.978,458.994C374.995,397.028,395.008,289.955,452.433,206.619C525.592,100.45,682.857,31.31,678.483,-97.551C674.205,-223.569,517.92,-282.005,432.692,-374.93C350.42,-464.633,304.497,-605.459,186.235,-634.258C67.964,-663.059,-39.214,-563.351,-151.888,-517.284C-251.827,-476.424,-357.621,-451.71,-437.615,-379.196C-524.361,-300.561,-602.029,-204.737,-623.618,-89.663C-645.593,27.467,-620.767,153.798,-556.432,254.114C-495.665,348.866,-382.219,387.089,-283.352,440.904C-191.849,490.711,-104.129,553.733,0,556.99" fill="#a281d4"></path><path d="M1440 1236.999C1564.339 1244.476 1650.234 1117.4099999999999 1752.789 1046.708 1851.545 978.625 1970.603 933.573 2030.702 829.765 2093.364 721.531 2110.842 589.814 2088.554 466.752 2066.678 345.96299999999997 1983.239 251.437 1908.345 154.17700000000002 1828.951 51.07299999999998 1764.38-82.923 1638.857-117.24300000000005 1513.57-151.49900000000002 1388.477-72.71100000000001 1269.555-20.480999999999995 1163.975 25.88900000000001 1062.362 80.21100000000001 988.2090000000001 168.52100000000002 914.802 255.94400000000002 871.021 362.879 853.003 475.603 834.781 589.602 829.015 712.51 885.127 813.402 939.787 911.684 1061.098 942.252 1150.4859999999999 1010.492 1249.893 1086.38 1315.162 1229.492 1440 1236.999" fill="#d0c0ea"></path></g><defs><mask id="SvgjsMask1029"><rect width="1440" height="560" fill="#ffffff"></rect></mask></defs></svg>