<svg xmlns="http://www.w3.org/2000/svg" version="1.1" xmlns:xlink="http://www.w3.org/1999/xlink" xmlns:svgjs="http://svgjs.dev/svgjs" width="1440" height="560" preserveAspectRatio="none" viewBox="0 0 1440 560"><g mask="url(&quot;#SvgjsMask1037&quot;)" fill="none"><rect width="1440" height="560" x="0" y="0" fill="rgba(230, 220, 245, 1)"></rect><path d="M0,506.395C95.73,504.94,175.574,445.982,265.502,413.129C385.178,369.408,532.818,377.813,616.04,281.336C703.76,179.645,736.74,29.522,709.921,-102.071C683.521,-231.606,577.978,-328.751,474.847,-411.457C384.13,-484.208,275.104,-530.275,159.566,-543.431C55.698,-555.258,-40.909,-510.371,-141.42,-481.631C-242.738,-452.661,-354.461,-445.698,-431.958,-374.293C-513.19,-299.447,-552.368,-190.817,-574.495,-82.6C-597.601,30.402,-620.41,157.358,-560.862,256.137C-502.224,353.407,-374.459,374.999,-270.739,421.279C-182.562,460.624,-96.546,507.862,0,506.395" fill="#d9caf0"></path><path d="M1440 1230.112C1563.46 1244.098 1686.128 1164.938 1769.654 1072.952 1845.606 989.307 1817.378 856.346 1870.1190000000001 756.429 1927.873 647.015 2084.885 590.21 2089.725 466.584 2094.49 344.86400000000003 1992.559 237.76299999999998 1893.183 167.315 1802.9 103.31299999999999 1677.468 142.36399999999998 1574.645 101.44200000000001 1455.544 54.041 1374.896-115.34900000000005 1249.473-88.87400000000002 1127.01-63.024 1093.38 100.524 1040.835 214.122 999.9449999999999 302.524 995.6890000000001 397.73400000000004 979.932 493.852 963.8050000000001 592.228 914.833 690.761 947.244 785.034 980.585 882.0129999999999 1078.987 934.591 1155.089 1003.3299999999999 1247.029 1086.374 1316.895 1216.1660000000002 1440 1230.112" fill="#f3eefa"></path></g><defs><mask id="SvgjsMask1037"><rect width="1440" height="560" fill="#ffffff"></rect></mask></defs></svg>