<svg xmlns="http://www.w3.org/2000/svg" version="1.1" xmlns:xlink="http://www.w3.org/1999/xlink" xmlns:svgjs="http://svgjs.dev/svgjs" width="1440" height="560" preserveAspectRatio="none" viewBox="0 0 1440 560"><g mask="url(&quot;#SvgjsMask1044&quot;)" fill="none"><rect width="1440" height="560" x="0" y="0" fill="rgba(232, 226, 241, 1)"></rect><path d="M0,408.468C79.36,418.644,167.128,407.217,229.487,357.088C290.34,308.17,299.932,222.246,324.037,147.983C345.433,82.065,363.158,17.207,362.299,-52.091C361.336,-129.764,364.217,-213.22,318.777,-276.222C272.052,-341.005,189.395,-363.224,115.691,-394.008C33.152,-428.482,-50.466,-489.227,-137.003,-466.589C-223.731,-443.901,-269.728,-351.906,-322.438,-279.394C-371.061,-212.505,-414.718,-143.037,-431.116,-61.985C-448.187,22.393,-464.391,118.461,-417.542,190.685C-371.336,261.917,-269.826,263.453,-194.545,302.718C-127.75,337.557,-74.723,398.887,0,408.468" fill="#d2c6e3"></path><path d="M1440 1051.368C1530.93 1046.683 1575.061 937.6120000000001 1645.971 880.4970000000001 1707.531 830.914 1787.712 805.005 1829.314 737.794 1873.666 666.14 1902.345 578.4 1883.8519999999999 496.18399999999997 1865.737 415.65 1790.939 364.824 1732.343 306.683 1678.133 252.89299999999997 1620.732 207.81599999999997 1554.65 169.53699999999998 1469.368 120.13600000000002 1385.275 23.812999999999988 1290.46 50.71300000000002 1195.848 77.555 1184.737 209.45600000000002 1128.809 290.351 1080.366 360.419 1006.288 412.25800000000004 983.71 494.395 959.606 582.081 953.8109999999999 682.525 999.371 761.2280000000001 1044.01 838.341 1145.505 853.447 1219.922 902.448 1295.43 952.1669999999999 1349.713 1056.02 1440 1051.368" fill="#fffeff"></path></g><defs><mask id="SvgjsMask1044"><rect width="1440" height="560" fill="#ffffff"></rect></mask></defs></svg>