<svg xmlns="http://www.w3.org/2000/svg" version="1.1" xmlns:xlink="http://www.w3.org/1999/xlink" xmlns:svgjs="http://svgjs.dev/svgjs" viewBox="0 0 800 800"><g fill="none" stroke-width="13.5" stroke="hsl(335, 77%, 50%)" stroke-linecap="round"><line x1="309" y1="400" x2="491" y2="400" transform="rotate(0, 400, 400)" opacity="0.10"></line><line x1="666" y1="400" x2="134" y2="400" transform="rotate(5, 400, 400)" opacity="0.46"></line><line x1="555.5" y1="400" x2="244.5" y2="400" transform="rotate(10, 400, 400)" opacity="0.79"></line><line x1="179.5" y1="400" x2="620.5" y2="400" transform="rotate(15, 400, 400)" opacity="0.86"></line><line x1="66.5" y1="400" x2="733.5" y2="400" transform="rotate(20, 400, 400)" opacity="0.45"></line><line x1="476.5" y1="400" x2="323.5" y2="400" transform="rotate(25, 400, 400)" opacity="0.80"></line><line x1="334" y1="400" x2="466" y2="400" transform="rotate(30, 400, 400)" opacity="0.74"></line><line x1="516" y1="400" x2="284" y2="400" transform="rotate(35, 400, 400)" opacity="0.15"></line><line x1="403" y1="400" x2="397" y2="400" transform="rotate(40, 400, 400)" opacity="0.24"></line><line x1="137.5" y1="400" x2="662.5" y2="400" transform="rotate(45, 400, 400)" opacity="0.91"></line><line x1="363" y1="400" x2="437" y2="400" transform="rotate(50, 400, 400)" opacity="0.46"></line><line x1="166" y1="400" x2="634" y2="400" transform="rotate(55, 400, 400)" opacity="0.16"></line><line x1="456" y1="400" x2="344" y2="400" transform="rotate(60, 400, 400)" opacity="0.67"></line><line x1="195" y1="400" x2="605" y2="400" transform="rotate(65, 400, 400)" opacity="0.90"></line><line x1="142" y1="400" x2="658" y2="400" transform="rotate(70, 400, 400)" opacity="0.08"></line><line x1="509.5" y1="400" x2="290.5" y2="400" transform="rotate(75, 400, 400)" opacity="0.30"></line><line x1="177" y1="400" x2="623" y2="400" transform="rotate(80, 400, 400)" opacity="0.13"></line><line x1="584" y1="400" x2="216" y2="400" transform="rotate(85, 400, 400)" opacity="0.26"></line><line x1="342" y1="400" x2="458" y2="400" transform="rotate(90, 400, 400)" opacity="0.52"></line><line x1="479" y1="400" x2="321" y2="400" transform="rotate(95, 400, 400)" opacity="0.12"></line><line x1="277" y1="400" x2="523" y2="400" transform="rotate(100, 400, 400)" opacity="0.25"></line><line x1="382" y1="400" x2="418" y2="400" transform="rotate(105, 400, 400)" opacity="0.56"></line><line x1="441.5" y1="400" x2="358.5" y2="400" transform="rotate(110, 400, 400)" opacity="0.54"></line><line x1="724" y1="400" x2="76" y2="400" transform="rotate(115, 400, 400)" opacity="0.80"></line><line x1="667" y1="400" x2="133" y2="400" transform="rotate(120, 400, 400)" opacity="0.14"></line><line x1="145" y1="400" x2="655" y2="400" transform="rotate(125, 400, 400)" opacity="0.37"></line><line x1="390.5" y1="400" x2="409.5" y2="400" transform="rotate(130, 400, 400)" opacity="0.95"></line><line x1="200.5" y1="400" x2="599.5" y2="400" transform="rotate(135, 400, 400)" opacity="0.69"></line><line x1="486.5" y1="400" x2="313.5" y2="400" transform="rotate(140, 400, 400)" opacity="0.35"></line><line x1="66" y1="400" x2="734" y2="400" transform="rotate(145, 400, 400)" opacity="0.70"></line><line x1="94" y1="400" x2="706" y2="400" transform="rotate(150, 400, 400)" opacity="0.27"></line><line x1="44" y1="400" x2="756" y2="400" transform="rotate(155, 400, 400)" opacity="0.32"></line><line x1="177" y1="400" x2="623" y2="400" transform="rotate(160, 400, 400)" opacity="0.89"></line><line x1="444" y1="400" x2="356" y2="400" transform="rotate(165, 400, 400)" opacity="0.31"></line><line x1="557.5" y1="400" x2="242.5" y2="400" transform="rotate(170, 400, 400)" opacity="0.29"></line><line x1="679.5" y1="400" x2="120.5" y2="400" transform="rotate(175, 400, 400)" opacity="0.98"></line><line x1="521" y1="400" x2="279" y2="400" transform="rotate(180, 400, 400)" opacity="0.64"></line><line x1="341.5" y1="400" x2="458.5" y2="400" transform="rotate(185, 400, 400)" opacity="0.29"></line><line x1="92" y1="400" x2="708" y2="400" transform="rotate(190, 400, 400)" opacity="0.21"></line><line x1="260.5" y1="400" x2="539.5" y2="400" transform="rotate(195, 400, 400)" opacity="0.36"></line><line x1="538.5" y1="400" x2="261.5" y2="400" transform="rotate(200, 400, 400)" opacity="0.53"></line><line x1="713.5" y1="400" x2="86.5" y2="400" transform="rotate(205, 400, 400)" opacity="0.49"></line><line x1="176.5" y1="400" x2="623.5" y2="400" transform="rotate(210, 400, 400)" opacity="0.40"></line><line x1="324.5" y1="400" x2="475.5" y2="400" transform="rotate(215, 400, 400)" opacity="0.94"></line><line x1="362" y1="400" x2="438" y2="400" transform="rotate(220, 400, 400)" opacity="0.17"></line><line x1="233.5" y1="400" x2="566.5" y2="400" transform="rotate(225, 400, 400)" opacity="0.68"></line><line x1="103.5" y1="400" x2="696.5" y2="400" transform="rotate(230, 400, 400)" opacity="0.21"></line><line x1="404" y1="400" x2="396" y2="400" transform="rotate(235, 400, 400)" opacity="0.76"></line><line x1="74" y1="400" x2="726" y2="400" transform="rotate(240, 400, 400)" opacity="0.34"></line><line x1="698" y1="400" x2="102" y2="400" transform="rotate(245, 400, 400)" opacity="0.42"></line><line x1="408.5" y1="400" x2="391.5" y2="400" transform="rotate(250, 400, 400)" opacity="0.14"></line><line x1="593" y1="400" x2="207" y2="400" transform="rotate(255, 400, 400)" opacity="0.29"></line><line x1="420" y1="400" x2="380" y2="400" transform="rotate(260, 400, 400)" opacity="0.95"></line><line x1="76.5" y1="400" x2="723.5" y2="400" transform="rotate(265, 400, 400)" opacity="0.23"></line><line x1="625.5" y1="400" x2="174.5" y2="400" transform="rotate(270, 400, 400)" opacity="0.53"></line><line x1="386" y1="400" x2="414" y2="400" transform="rotate(275, 400, 400)" opacity="0.38"></line><line x1="698.5" y1="400" x2="101.5" y2="400" transform="rotate(280, 400, 400)" opacity="0.24"></line><line x1="413.5" y1="400" x2="386.5" y2="400" transform="rotate(285, 400, 400)" opacity="0.50"></line><line x1="248.5" y1="400" x2="551.5" y2="400" transform="rotate(290, 400, 400)" opacity="0.47"></line><line x1="337" y1="400" x2="463" y2="400" transform="rotate(295, 400, 400)" opacity="0.98"></line><line x1="694.5" y1="400" x2="105.5" y2="400" transform="rotate(300, 400, 400)" opacity="0.45"></line><line x1="161.5" y1="400" x2="638.5" y2="400" transform="rotate(305, 400, 400)" opacity="0.53"></line><line x1="506" y1="400" x2="294" y2="400" transform="rotate(310, 400, 400)" opacity="0.27"></line><line x1="677" y1="400" x2="123" y2="400" transform="rotate(315, 400, 400)" opacity="0.88"></line><line x1="611" y1="400" x2="189" y2="400" transform="rotate(320, 400, 400)" opacity="0.44"></line><line x1="432" y1="400" x2="368" y2="400" transform="rotate(325, 400, 400)" opacity="0.99"></line><line x1="250" y1="400" x2="550" y2="400" transform="rotate(330, 400, 400)" opacity="0.10"></line><line x1="651" y1="400" x2="149" y2="400" transform="rotate(335, 400, 400)" opacity="0.48"></line><line x1="37.5" y1="400" x2="762.5" y2="400" transform="rotate(340, 400, 400)" opacity="0.36"></line></g></svg>